<?xml version="1.0" encoding="utf-8"?>
<!-- Generator: Adobe Illustrator 22.0.0, SVG Export Plug-In . SVG Version: 6.00 Build 0)  -->
<svg version="1.1" id="Layer_1" xmlns="http://www.w3.org/2000/svg" xmlns:xlink="http://www.w3.org/1999/xlink" x="0px" y="0px"
	 viewBox="0 0 841.9 595.3" style="enable-background:new 0 0 841.9 595.3;" xml:space="preserve">
<style type="text/css">
	.st0{fill:url(#SVGID_1_);}
</style>
<g>
	<g>
		<linearGradient id="SVGID_1_" gradientUnits="userSpaceOnUse" x1="58.7666" y1="349.3742" x2="744.704" y2="349.3742" gradientTransform="matrix(1 0 0 -1 0 595.2756)">
			<stop  offset="0" style="stop-color:#FFF33B"/>
			<stop  offset="5.948725e-02" style="stop-color:#FFE029"/>
			<stop  offset="0.1303" style="stop-color:#FFD218"/>
			<stop  offset="0.2032" style="stop-color:#FEC90F"/>
			<stop  offset="0.2809" style="stop-color:#FDC70C"/>
			<stop  offset="0.6685" style="stop-color:#F3903F"/>
			<stop  offset="0.8876" style="stop-color:#ED683C"/>
			<stop  offset="1" style="stop-color:#E93E3A"/>
		</linearGradient>
		<path class="st0" d="M380.7,215.7c-2,1.2-2.1,1.2-2.6,1c-0.4-0.1-0.7-0.4-0.9-0.7c0-0.1-0.1-0.1-1.2-2.4c-0.1-0.3-0.3-0.5-0.4-0.8
			c-0.2,0-0.3,0-0.5,0c-0.4-0.1-0.8-0.4-1-0.7c-0.5-0.8-0.5-0.8,1.7-4.8c0-0.1,0.1-0.1,0.1-0.2h-0.1c-0.4-0.1-0.7-0.4-0.9-0.7
			c-0.1-0.2-0.1-0.2-0.9-2.6c-0.1-0.3-0.2-0.6-0.3-0.9c-0.6,0.4-1.4,0.8-1.9,1.2c-3.3,2-3.3,2-4,1.8c-0.4-0.1-0.7-0.4-0.9-0.7
			c-0.4-0.7-0.4-0.7,0.9-4.5c-0.5,0.3-0.9,0.6-1.4,0.8c-6.1,3.6-6.1,3.6-6.9,3.5c-0.4-0.1-0.7-0.4-0.9-0.7c-0.4-0.7-0.4-0.7,1.4-4.7
			c0-0.1,0.1-0.2,0.1-0.3H360c-0.4-0.1-0.8-0.4-1-0.7c-0.1-0.2-0.1-0.2-1-2.7c-0.1-0.2-0.2-0.5-0.3-0.7c-0.3,0.2-0.5,0.3-0.8,0.5
			c-2.6,1.6-2.9,1.8-3.6,1.6c-0.4-0.1-0.7-0.4-1-0.7c-0.4-0.7-0.4-0.7,0.9-4.9c0,0,0,0,0-0.1c-1.9,1.2-2.4,1.4-3.1,1.2
			c-0.4-0.1-0.8-0.4-1-0.7c-0.5-0.8-0.5-0.8,1.7-4.5c-0.8,0.5-1.7,1-2.5,1.5c-8.9,5.3-8.9,5.3-9.7,5.1c-0.4-0.1-0.7-0.4-0.9-0.7
			c-0.5-0.9-0.6-1,2.8-5.2c-3.9,2.4-4,2.3-4.7,2.2c-0.4-0.1-0.7-0.4-0.9-0.7c-0.6-1-0.6-1.1,4.5-7c-7.6,4.6-7.6,4.6-8.4,4.4
			c-0.4-0.1-0.7-0.4-0.9-0.7c-0.6-1-0.6-1,3.8-6.8h-0.1c-7.9,4.8-7.9,4.8-8.8,4.6c-0.4-0.1-0.7-0.4-0.9-0.7c-0.6-1-0.6-1,4.1-6.8
			c-4.5,2.8-4.5,2.7-5.3,2.5c-0.4-0.1-0.7-0.4-0.9-0.7c-0.6-1.1-0.6-1.1,4.5-7.1l0.1-0.1c-1,0.6-1.9,1.2-2.8,1.7
			c-10.9,6.6-11,6.6-11.8,6.3c-0.4-0.1-0.7-0.4-0.9-0.7c-0.7-1.2-0.8-1.3,6.4-7.3c-4.6,2.8-4.8,2.7-5.5,2.5
			c-0.4-0.1-0.7-0.4-0.9-0.7c-0.7-1.2-0.8-1.3,5.4-6.5c-12.3,7.4-12.4,7.4-13.3,7.2c-0.4-0.1-0.7-0.4-0.9-0.7
			c-0.7-1.3-0.7-1.3,8-9.1c-9.6,5.9-9.7,5.8-10.6,5.6c-0.4-0.1-0.7-0.4-0.9-0.7c-0.7-1.2-0.8-1.3,6.3-7.6c-5.1,3.1-5.3,3-6,2.8
			c-0.4-0.1-0.8-0.4-1-0.7c-0.4-0.7-0.2-1.6,0.5-2c0.2-0.1,0.4-0.2,0.6-0.2c1.1-0.5,5.5-3.2,8.7-5.2c8.4-5.2,8.5-5.2,9.3-5
			c0.4,0.1,0.8,0.4,1,0.7c0.7,1.2,0.7,1.3-7.2,8.3c9.3-5.7,9.5-5.7,10.3-5.4c0.4,0.1,0.7,0.4,1,0.7c0.7,1.3,0.8,1.3-8.2,9.3
			c0.7-0.4,1.4-0.8,2-1.2c12-7.2,12-7.2,12.9-7c0.4,0.1,0.7,0.4,0.9,0.7c0.7,1.2,0.8,1.3-5.1,6.3c5.3-3.2,5.4-3.1,6.1-3
			c0.4,0.1,0.7,0.4,0.9,0.7c0.7,1.2,0.8,1.4-6.6,7.6c7.1-4.3,7.2-4.3,8-4.1c0.4,0.1,0.7,0.4,0.9,0.7c0.6,1,0.6,1.1-4.2,6.8
			c3.5-2.2,3.8-2.2,4.5-2c0.4,0.1,0.7,0.4,0.9,0.7c0.6,1,0.6,1-4.1,6.9c0.4-0.2,0.8-0.5,1.1-0.7c6.7-4.1,6.7-4.1,7.5-3.9
			c0.4,0.1,0.7,0.4,0.9,0.7c0.6,1,0.6,1-4,6.9l0,0c0.5-0.3,0.9-0.6,1.4-0.8c7.3-4.4,7.3-4.4,8.1-4.2c0.4,0.1,0.7,0.4,0.9,0.7
			c0.6,1,0.6,1.1-4.4,6.9c3.3-2,3.4-2,4.1-1.8c0.4,0.1,0.7,0.4,0.9,0.7c0.5,0.9,0.6,1-2.9,5.4c0.7-0.4,1.4-0.8,2-1.2
			c7.6-4.5,7.6-4.5,8.3-4.3c0.4,0.1,0.7,0.4,0.9,0.7c0.5,0.8,0.5,0.9-1.6,4.4c0.7-0.4,1-0.4,1.4-0.3c0.4,0.1,0.7,0.4,0.9,0.7
			c0.4,0.7,0.4,0.7-0.9,4.9v0.1c1.8-1.1,2.1-1.3,2.8-1.1c0.4,0.1,0.7,0.4,0.9,0.7c0.1,0.2,0.1,0.2,1,2.6c0.1,0.3,0.2,0.5,0.3,0.8
			c1.2-0.8,1.6-1,2.3-0.9c0.4,0.1,0.8,0.4,1,0.7c0.4,0.7,0.4,0.8-1.3,4.5c0.6-0.4,1.2-0.7,1.7-1c5.3-3.1,5.3-3.1,6-3
			c0.4,0.1,0.7,0.4,0.9,0.7c0.4,0.7,0.4,0.7-0.9,4.3c0,0.1,0,0.1-0.1,0.2c3.4-2,3.4-2,4.1-1.9c0.4,0.1,0.7,0.4,0.9,0.7
			c0.1,0.2,0.1,0.2,1,2.8c0.1,0.2,0.1,0.4,0.2,0.6c1.8-1.1,2-1.2,2.7-1c0.4,0.1,0.7,0.4,0.9,0.7c0.5,0.8,0.5,0.8-2.2,5.7
			c-0.2,0.5-0.5,1-0.8,1.4c0.1,0.2,0.3,0.7,1,2.1c0.1,0.3,0.3,0.6,0.4,0.9c0.5-0.3,1-0.6,1.6-0.9c3.5-2.1,3.5-2.1,4.2-1.9l-0.4,1.4
			l-1.3,0.8l1.3-0.8l0.7,1.3c-0.2,0.1-1.7,1-2.9,1.7C381.6,215.2,381.1,215.4,380.7,215.7z M300.5,161.7L300.5,161.7L300.5,161.7z
			 M300.5,161.7L300.5,161.7L300.5,161.7z M300.5,161.7L300.5,161.7z M391.5,559.5c-3.2,1.9-3.5,1.8-4.1,1.6c-0.4-0.1-0.8-0.4-1-0.7
			c-0.8-1.5,0-2.2,6.6-6.8c3.2-2.3,7.4-5.1,11.9-8.1c-21.2,12.8-22.3,13.3-23.4,13c-0.4-0.1-0.8-0.4-1-0.7c-0.8-1.4,0.6-2.5,2.6-3.9
			c1.4-1,3.5-2.5,6.3-4.3c1.8-1.2,3.8-2.5,6-4c-15.8,9.6-17.7,10.5-18.8,10.2c-0.4-0.1-0.8-0.4-1-0.7c-0.9-1.5,0.7-2.7,3.8-4.9
			c1.6-1.1,3.6-2.5,6.3-4.2c-13.4,8-15.6,8.9-16.7,8.7c-0.4-0.1-0.8-0.4-1-0.7c-0.9-1.6,0.6-2.9,4.6-5.7c0.1,0,0.1-0.1,0.2-0.1
			c-7.2,4.1-9.7,5.1-10.7,4.9c-0.4-0.1-0.8-0.4-1-0.8c-0.7-1.3-0.6-2.4,8.1-8.2c-4,2.1-5.6,2.7-6.3,2.5c-0.4-0.1-0.8-0.4-1-0.8
			c-0.4-0.7-0.5-1.4,1-2.9c-6.1,3.3-9.2,4.5-10.2,4.3c-0.5-0.1-0.8-0.4-1.1-0.8c-0.5-0.9-0.5-1.8,3.2-4.7c-2.3,1-3.6,1.3-4.3,1.2
			c-0.5-0.1-0.9-0.4-1.1-0.8c-0.5-0.9-0.9-1.5,3.2-4.4c-5.6,3-8.4,4.1-9.3,3.8c-0.5-0.1-0.8-0.4-1.1-0.8c-0.9-1.5-1-1.7,14.7-12.5
			c-14.3,8.6-15.3,8.9-16.3,8.7c-0.4-0.1-0.8-0.4-1-0.7c-0.8-1.5,0-2.1,6.6-6.8c2.2-1.5,4.8-3.3,7.6-5.2
			c-17.6,10.7-18.7,11-19.7,10.8c-0.4-0.1-0.8-0.4-1-0.7c-0.8-1.4-0.2-2,6.8-7.1c1.4-1,2.9-2.1,4.6-3.3c-7.2,4.3-8.5,4.7-9.4,4.5
			c-0.4-0.1-0.8-0.4-1-0.7c-0.8-1.4,0.2-2.2,5.2-5.9c1.4-1,3.1-2.3,4.9-3.6c-16.6,10.1-17.8,10.5-18.9,10.2c-0.4-0.1-0.8-0.4-1-0.7
			c-0.8-1.5-0.2-2.2,7.3-7.4c0.8-0.5,1.6-1.1,2.4-1.7c-4.1,2.4-4.5,2.3-5.1,2.2c-0.4-0.1-0.8-0.4-1-0.7c-0.8-1.5,0.2-2.2,5.7-6.2
			c1.6-1.2,3.6-2.6,5.7-4c-14.7,8.9-15.5,9.2-16.5,8.9c-0.4-0.1-0.8-0.4-1-0.7c-0.8-1.4-0.1-2.1,5.5-6.4c1.5-1.2,3.3-2.5,5.2-3.9
			c-15.6,9.5-16.5,9.8-17.6,9.6c-0.4-0.1-0.8-0.4-1-0.7c-0.8-1.5,0.1-2.2,5.6-6.1c0.6-0.4,1.3-0.9,1.9-1.4c-6.4,3.8-7.5,4.2-8.4,4
			c-0.4-0.1-0.8-0.4-1-0.7c-0.8-1.3-0.9-1.5,10.7-9.7c-13.5,8.2-13.8,8.1-14.7,7.9c-0.4-0.1-0.8-0.4-1-0.7c-0.8-1.4-0.3-2,6.6-7
			c2.5-1.8,5.4-3.9,8.6-6.1c-19.6,11.9-19.8,11.8-20.9,11.6c-0.4-0.1-0.8-0.4-1-0.7c-0.8-1.5,0.1-2.2,5.9-6.2
			c2.2-1.5,4.9-3.4,7.8-5.4c-12.5,7.5-13.4,7.8-14.4,7.6c-0.4-0.1-0.8-0.4-1-0.7c-0.8-1.4,0.1-2.1,4.9-5.6c1-0.8,2.2-1.6,3.5-2.5
			c-9.4,5.7-9.7,5.6-10.5,5.4c-0.4-0.1-0.8-0.4-1-0.7c-0.8-1.4-0.9-1.5,11.6-10.4c-11.1,6.7-11.4,6.7-12.2,6.5
			c-0.4-0.1-0.8-0.4-1-0.7c-0.8-1.4-0.8-1.4,12.7-11.8c0.6-0.5,1.3-1,2-1.5c-1.6,1-3.3,2-4.8,2.9c-16.9,10.4-17.1,10.3-18.1,10.1
			c-0.4-0.1-0.8-0.4-1-0.7c-0.8-1.4,0.1-2.1,5-5.8c2.4-1.8,5.6-4.1,8.8-6.5c-16.9,10.3-17.1,10.2-18.1,10c-0.4-0.1-0.8-0.4-1-0.7
			c-0.8-1.4-0.1-2.1,6.6-7c0.8-0.6,1.7-1.2,2.6-1.9c-9.6,5.8-9.9,5.7-10.7,5.5c-0.4-0.1-0.7-0.4-1-0.7c-0.8-1.4,0.1-2.1,5.6-6.1
			c1.8-1.3,4-2.9,6.4-4.5c-14.8,8.9-15,8.8-15.9,8.6c-0.4-0.1-0.7-0.4-0.9-0.7c-0.9-1.5-0.9-1.5,15.9-13.6c0.1-0.1,0.3-0.2,0.4-0.3
			c-15.1,9.2-15.9,9.5-16.9,9.3c-0.4-0.1-0.8-0.4-1-0.7c-0.8-1.4-0.1-2.1,5.2-6.2c2.1-1.6,4.7-3.6,7.3-5.6
			c-14.5,8.9-15.3,9.2-16.3,8.9c-0.4-0.1-0.8-0.4-1-0.7c-0.8-1.3,0.2-2.1,3.9-5c1.2-0.9,2.6-2,4.1-3.2c-9.3,5.8-10,6-10.9,5.7
			c-0.4-0.1-0.8-0.4-1-0.7c-0.8-1.4,0.2-2.2,4.5-5.6c1.2-1,2.6-2.1,4.1-3.3c-10.7,6.6-10.9,6.5-11.8,6.3c-0.4-0.1-0.8-0.4-1-0.7
			c-0.8-1.4,0.2-2.3,5.4-6.1c1.3-1,2.8-2.1,4.4-3.2c-0.1,0.1-0.2,0.1-0.2,0.2c-19.3,11.7-19.4,11.6-20.4,11.4
			c-0.4-0.1-0.7-0.4-0.9-0.7c-0.8-1.4-0.1-2.2,6.5-7c2.3-1.6,5-3.6,7.8-5.6c-16.4,9.9-16.7,9.9-17.6,9.6c-0.4-0.1-0.8-0.4-1-0.7
			c-0.8-1.4-0.1-2.1,6-6.5c1.6-1.2,3.5-2.5,5.5-3.9c-14.2,8.5-14.4,8.5-15.3,8.2c-0.4-0.1-0.7-0.4-0.9-0.7c-0.8-1.4,0-2.2,6.2-6.7
			c1.7-1.3,3.7-2.7,5.8-4.2c-8,4.9-8.3,4.8-9.1,4.6c-0.4-0.1-0.8-0.4-1-0.7c-0.8-1.4,0.1-2.1,4.6-5.5c1.6-1.2,3.6-2.7,5.7-4.3
			c-14.7,8.9-14.9,8.8-15.8,8.6c-0.4-0.1-0.7-0.4-0.9-0.7c-0.8-1.4-0.8-1.5,12.8-11.9l-0.1,0.1c-17.1,10.3-17.2,10.3-18.2,10
			c-0.4-0.1-0.7-0.4-0.9-0.7c-0.8-1.4,0-2.1,5.1-6c2.4-1.9,5.5-4.2,8.6-6.6c-0.5,0.3-1,0.6-1.5,0.9c-16.8,10.2-17,10.2-18,9.9
			c-0.4-0.1-0.7-0.4-1-0.7c-0.8-1.5,0.2-2.2,5.6-6.1c0.7-0.5,1.5-1.1,2.4-1.6c-5.1,2.9-5.7,3-6.4,2.8c-0.4-0.1-0.8-0.4-1-0.7
			c-0.8-1.4-0.8-1.5,11.5-11c-10.9,6.7-11.6,6.9-12.5,6.7c-0.4-0.1-0.8-0.4-1-0.7c-0.8-1.4,0.3-2.2,3.9-5c0.8-0.7,1.8-1.4,2.8-2.2
			c-13.8,8.3-14,8.3-14.9,8c-0.4-0.1-0.8-0.4-1-0.7c-0.8-1.4,0.1-2.1,4.5-5.4c1.6-1.2,3.4-2.5,5.4-4c-6.8,4.1-7.3,4.2-8.1,4
			c-0.4-0.1-0.8-0.4-1-0.7c-0.8-1.4,0.1-2.1,4-5c1.2-0.9,2.6-2,4.2-3.1c-12.8,7.8-13.1,7.8-14,7.5c-0.4-0.1-0.8-0.4-1-0.7
			c-0.8-1.4,0.1-2.2,5-5.9c0.8-0.6,1.7-1.3,2.6-2c-10.4,6.3-10.6,6.3-11.4,6.1c-0.4-0.1-0.7-0.4-0.9-0.7c-0.8-1.3,0.1-2.1,3.9-5.1
			c1.2-1,2.6-2.1,4.1-3.2c-8.3,5-8.5,4.9-9.4,4.7c-0.4-0.1-0.8-0.4-1-0.7c-0.8-1.4,0.2-2.1,4.2-5.1c1.1-0.8,2.3-1.7,3.6-2.7
			c-13.5,8.2-13.8,8.2-14.7,7.9c-0.4-0.1-0.8-0.4-1-0.7c-0.8-1.5-1-1.6,13.3-12.3c-16.6,10.1-16.8,10-17.7,9.8
			c-0.4-0.1-0.7-0.4-0.9-0.7c-0.8-1.3-0.9-1.5,9.3-9.4c-11.9,7.2-12.2,7.2-13.1,7c-0.4-0.1-0.8-0.4-1-0.7c-0.8-1.4,0.2-2.1,4.2-5.4
			c1.4-1.1,3-2.4,4.7-3.7c-11.5,7.1-11.7,7-12.6,6.8c-0.4-0.1-0.7-0.4-0.9-0.7c-0.8-1.3-0.8-1.4,8.6-8.4c-8.6,5.2-8.8,5.2-9.6,5
			c-0.4-0.1-0.7-0.4-0.9-0.7c-0.8-1.4,0.1-2.2,4.6-5.6c1.4-1.1,3.1-2.3,4.9-3.7c-7,4.2-7.3,4.1-8.1,3.9c-0.4-0.1-0.8-0.4-1-0.7
			c-0.8-1.4,0.2-2.1,4.3-5.4c1.1-0.9,2.5-2,3.9-3.1c-10.4,6.3-10.7,6.2-11.5,6c-0.4-0.1-0.8-0.4-1-0.7c-0.7-1.2-0.8-1.4,7.4-8.2
			c-13,8-13.2,7.9-14.1,7.7c-0.4-0.1-0.8-0.4-1-0.7c-0.7-1.2-0.8-1.4,7-7.7c-5.3,3.2-5.6,3.1-6.3,3c-0.4-0.1-0.8-0.4-1-0.7
			c-0.7-1.2-0.7-1.2,6.5-7.7c-10.1,6.3-10.6,6.4-11.5,6.2c-0.4-0.1-0.8-0.4-1-0.7c-0.7-1.3-0.8-1.4,8-8.2
			c-12.6,7.6-12.8,7.5-13.6,7.3c-0.4-0.1-0.7-0.4-0.9-0.7c-0.7-1.3-0.8-1.4,8.2-9.2c-12.3,7.6-12.6,7.5-13.5,7.3
			c-0.4-0.1-0.8-0.4-1-0.7c-0.8-1.3-0.8-1.4,8.9-9.3c-6.4,3.9-6.6,3.9-7.3,3.7c-0.4-0.1-0.8-0.4-1-0.7c-0.7-1.1-0.7-1.3,4.8-6.1
			c-7.4,4.6-8,4.7-8.8,4.5c-0.4-0.1-0.8-0.4-1-0.7c-0.8-1.4-0.8-1.5,9.7-10.1c-11.7,7.2-11.9,7.1-12.8,6.9c-0.4-0.1-0.8-0.4-1-0.7
			c-0.7-1.2-0.7-1.3,6.1-7.8c-10.5,6.5-11,6.7-12,6.4c-0.4-0.1-0.8-0.4-1-0.7c-0.7-1.2-0.8-1.3,6.5-7.2c-11.6,7.1-11.7,7-12.6,6.8
			c-0.4-0.1-0.7-0.4-0.9-0.7c-0.8-1.3-0.8-1.4,9.8-9.6c-6.3,3.8-6.6,3.7-7.3,3.5c-0.4-0.1-0.7-0.4-0.9-0.7c-0.6-1.1-0.7-1.2,5-6.7
			c-7.7,4.7-8.2,4.9-9.1,4.7c-0.4-0.1-0.8-0.4-1-0.7c-0.7-1.1-0.7-1.2,5.8-7.4c-7.1,4.4-7.5,4.6-8.4,4.4c-0.4-0.1-0.8-0.4-1-0.7
			c-0.7-1.3-0.8-1.3,7.6-8.1c-0.7,0.4-1.4,0.8-2,1.2c-14.2,8.6-14.3,8.6-15.3,8.4c-0.4-0.1-0.7-0.4-0.9-0.7
			c-0.8-1.4,0.3-2.3,4.4-5.5c0.5-0.4,1.1-0.8,1.6-1.3c-4.5,2.7-4.7,2.6-5.4,2.5c-0.4-0.1-0.8-0.4-1-0.7c-0.7-1.3-0.8-1.3,8.6-9.2
			c-0.3,0.2-0.7,0.4-1,0.6c-14.2,8.6-14.3,8.5-15.2,8.3c-0.4-0.1-0.7-0.4-0.9-0.7c-0.8-1.3,0.1-2,3.7-4.9c0.8-0.7,1.8-1.4,2.9-2.3
			c-6.8,4.1-7,4-7.8,3.8c-0.4-0.1-0.7-0.4-1-0.7c-0.7-1.3-0.8-1.4,8.2-8.6c-5.5,3.3-5.8,3.2-6.5,3c-0.4-0.1-0.8-0.4-1-0.7
			c-0.8-1.4,0.2-2.2,4.7-5.6c1-0.7,2-1.5,3.2-2.4c-8.5,5.2-9.2,5.4-10.1,5.2c-0.4-0.1-0.8-0.4-1-0.7c-0.8-1.4-0.6-2,9.6-8.9
			c0.4-0.3,0.9-0.6,1.3-0.9c-13.8,8.3-15.9,9.2-16.9,8.9c-0.4-0.1-0.8-0.4-1-0.7c-0.8-1.4-1-1.8,12.8-10.6c-4.6,2.6-6.4,3.2-7.3,3
			c-0.4-0.1-0.8-0.4-1-0.8c-0.7-1.2-1.1-1.8,9.1-8.3c-2.6,1.3-3.5,1.5-4.1,1.4c-0.4-0.1-0.8-0.4-1-0.7c-0.9-1.5,0.4-2.7,4.9-5.9
			c2.5-1.7,5.9-4,10.4-6.8c-3.8,2-5.3,2.6-6,2.4c-0.4-0.1-0.8-0.4-1-0.8c-0.9-1.5-1.2-2.1,18-13.8c-0.5,0.1-0.8,0.1-1,0.1
			c-0.4-0.1-0.8-0.4-1-0.8c-0.9-1.6,0.6-2.8,4.6-5.6c2.7-1.9,6.7-4.4,12.2-7.8c2.1-1.3,4.3-2.6,6.6-4c-0.9,0.3-1.5,0.4-1.8,0.3
			c-0.5-0.1-0.8-0.4-1-0.8c-0.9-1.6-1.3-2.2,23.1-16.9c-3,1.5-4.1,1.8-4.7,1.7c-0.4-0.1-0.8-0.4-1-0.7c-0.9-1.6-1.4-2.4,20.6-15.9
			c-0.7,0.2-1.2,0.3-1.5,0.2c-0.4-0.1-0.8-0.4-1-0.8c-1-1.7-1.3-2.3,26-18.8c-2.4,1.2-3.3,1.4-3.9,1.3c-0.4-0.1-0.8-0.4-1-0.7
			c-0.9-1.6,0.6-2.8,4.8-5.6c2.4-1.6,5.8-3.8,10.3-6.6c-1,0.4-1.7,0.5-2,0.4c-0.4-0.1-0.8-0.4-1-0.8c-0.9-1.5,0.6-2.8,4.6-5.6
			c2.7-1.9,6.6-4.4,12-7.7c2.3-1.4,4.9-3,7.5-4.6c-0.6,0.2-1,0.2-1.3,0.1c-0.4-0.1-0.8-0.4-1-0.8c-1-1.7-1.2-2,27.3-19.7
			c-6.2,3.5-7,3.7-7.7,3.5c-0.4-0.1-0.8-0.4-1-0.7c-0.8-1.4,0.6-2.4,2.6-4c1.5-1.1,3.6-2.6,6.5-4.5c3.2-2.2,7.1-4.7,11.2-7.4
			c-1.1,0.5-1.3,0.4-1.7,0.3c-0.4-0.1-0.8-0.4-1-0.7c-0.9-1.5-0.9-1.5,12.1-11.7c0.6-0.5,1.3-1,2-1.5c-0.1-0.1-0.2-0.2-0.3-0.4
			c-0.4-0.7-0.2-1.6,0.5-2c0.1-0.1,0.3-0.1,0.4-0.2c0.5-0.3,2.2-1.3,3.5-2.1c4.8-3,5-3.1,5.8-2.9c0.4,0.1,0.7,0.4,0.9,0.7
			c0.8,1.3-0.2,2.1-3.5,4.8c-1.5,1.3-3.5,2.8-5.6,4.4c1-0.6,2-1.2,3-1.8c19.4-11.8,19.6-11.7,20.6-11.4c0.4,0.1,0.8,0.4,1,0.7
			c1,1.7,1.1,1.9-21.7,16.8c24.9-15,26.4-15.6,27.6-15.3c0.4,0.1,0.8,0.4,1,0.7c0.8,1.3,1.1,2-11.6,10.3c10.9-6.4,14.1-7.9,15.3-7.6
			c0.4,0.1,0.8,0.4,1,0.8c0.9,1.6-0.7,2.9-4.7,5.7c-1,0.7-2.3,1.5-3.7,2.5c4.6-2.5,6.5-3.1,7.3-2.9c0.4,0.1,0.8,0.4,1,0.8
			c1.1,1.9,0.1,3.5-29.5,21.3c0.4,0.1,0.8,0.4,1,0.7c0.9,1.5-0.5,2.8-5.3,6.2c-2.7,1.9-6.5,4.3-11.5,7.5c0.9-0.3,1.5-0.4,1.9-0.3
			c0.4,0.1,0.8,0.4,1,0.8c0.9,1.6,1.3,2.3-23.3,17.2c2.1-1,3-1.2,3.5-1c0.4,0.1,0.8,0.4,1,0.8c1,1.7,0.2,3.3-20.7,16.2
			c0.2,0,0.4,0,0.5,0c0.4,0.1,0.8,0.4,1,0.8c1,1.8,0.2,3.4-22.2,17.1c0.3-0.1,0.5,0,0.7,0c0.4,0.1,0.8,0.4,1,0.7
			c0.9,1.5,1.3,2.2-17.5,13.8c0.1,0,0.3,0,0.4,0c0.4,0.1,0.8,0.4,1,0.8c1,1.7,1.3,2.2-25,18.2c2.1-1,3.1-1.2,3.7-1.1
			c0.5,0.1,0.8,0.4,1,0.8c0.9,1.5-0.7,2.7-4,5c-2.3,1.6-5.6,3.8-10.2,6.7c-2.3,1.4-4.8,3-7.5,4.7c0.1,0,0.2,0,0.3,0
			c0.4,0.1,0.8,0.4,1,0.8c0.8,1.5,1.1,2-16.1,13c2.8-1.5,3.5-1.6,4-1.4c0.4,0.1,0.8,0.4,1,0.7c0.9,1.5,0.2,2.1-7.7,7.4
			c-4.1,2.7-9.4,6.2-15.2,9.9c0.2,0,0.3,0,0.4,0.1c0.4,0.1,0.8,0.4,1,0.7c0.8,1.4-0.3,2.3-4.9,5.7c-1.2,0.9-2.6,2-4.2,3.1
			c0.7-0.3,1-0.3,1.3-0.2c0.4,0.1,0.7,0.4,0.9,0.7c0.8,1.3,0.8,1.4-9.5,9.6c9.2-5.6,9.3-5.5,10.2-5.3c0.4,0.1,0.7,0.4,0.9,0.7
			c0.8,1.3-0.2,2.1-3.8,5c-1,0.8-2.1,1.6-3.3,2.6c10.6-6.4,10.8-6.3,11.6-6.1c0.4,0.1,0.7,0.4,0.9,0.7c0.7,1.2,0.8,1.3-7.8,8.6
			c10-6.1,10.3-6.1,11.1-5.9c0.4,0.1,0.8,0.4,1,0.7c0.7,1.2,0.8,1.4-7.2,7.5c12.4-7.5,12.7-7.4,13.5-7.2c0.4,0.1,0.7,0.4,1,0.7
			c0.8,1.3-0.1,2-3.7,5c-0.6,0.5-1.3,1-2,1.6c1.4-0.8,1.8-0.7,2.3-0.6c0.4,0.1,0.8,0.4,1,0.7c0.7,1.1,0.7,1.2-6,7.6l0,0
			c8.3-5.2,8.4-5.2,9.3-5c0.4,0.1,0.8,0.4,1,0.7c0.7,1.2,0.7,1.2-5.7,7.3c1.2-0.7,2.3-1.4,3.4-2c11.9-7.2,11.9-7.2,12.8-6.9
			c0.4,0.1,0.7,0.4,0.9,0.7c0.8,1.3,0.8,1.4-9.7,9.5c7.1-4.2,7.3-4.2,8.1-4c0.4,0.1,0.7,0.4,0.9,0.7c0.8,1.3-0.2,2.1-3.4,4.9
			c-0.6,0.5-1.3,1.1-2,1.7c6.2-3.8,6.4-3.8,7.2-3.6c0.4,0.1,0.8,0.4,1,0.7c0.7,1.2,0.7,1.2-6.8,8.3c1.1-0.7,2.3-1.4,3.4-2.1
			c13.4-8.2,13.6-8.1,14.5-7.9c0.4,0.1,0.8,0.4,1,0.7c0.8,1.3,0.8,1.4-9.5,9.8c4.8-3,5.3-3,6-2.8c0.4,0.1,0.8,0.4,1,0.7
			c0.6,1.1,0.8,1.3-4.5,6c8.6-5.3,9.1-5.4,10-5.2c0.4,0.1,0.8,0.4,1,0.7c0.8,1.4,0.8,1.4-9.6,9.9c10.7-6.5,10.8-6.5,11.7-6.3
			c0.4,0.1,0.7,0.4,1,0.7c0.8,1.3,0.8,1.3-8.9,9.8c1.2-0.7,2.4-1.5,3.6-2.2c14.9-9,15-8.9,15.9-8.7c0.4,0.1,0.7,0.4,0.9,0.7
			c0.8,1.3-0.1,2-4.2,5.3c-0.7,0.5-1.4,1.1-2.2,1.7c2.1-1.2,2.5-1.2,3.1-1c0.4,0.1,0.8,0.4,1,0.7c0.7,1.2,0.8,1.3-6,7.4
			c10.1-6.2,10.3-6.2,11.2-6c0.4,0.1,0.8,0.4,1,0.7c0.7,1.3,0.8,1.4-8,8.5c11.8-7.2,11.9-7.2,12.8-6.9c0.4,0.1,0.8,0.4,1,0.7
			c0.7,1.3,0.8,1.4-7.8,8.5c0.5-0.3,1-0.6,1.4-0.9c13.7-8.4,13.9-8.3,14.8-8.1c0.4,0.1,0.8,0.4,1,0.7c0.8,1.3-0.1,2-3.9,5
			c-1.5,1.2-3.4,2.7-5.4,4.2c10.5-6.4,10.7-6.4,11.6-6.2c0.4,0.1,0.7,0.4,0.9,0.7c0.8,1.4-0.1,2.2-4.6,5.6c-1.4,1.1-3.1,2.4-4.9,3.7
			c7.5-4.5,7.7-4.4,8.5-4.2c0.4,0.1,0.8,0.4,1,0.7c0.8,1.4-0.2,2.2-4.9,5.9c-0.4,0.3-0.8,0.6-1.3,1c6.1-3.6,6.4-3.5,7.1-3.4
			c0.4,0.1,0.8,0.4,1,0.7c0.8,1.3,0.8,1.4-9.7,9.7l0,0c14.7-9,14.9-8.9,15.8-8.7c0.4,0.1,0.8,0.4,1,0.7c0.8,1.3-0.1,2.1-3.9,5
			c-1.9,1.5-4.3,3.3-6.9,5.3c18.6-11.2,18.8-11.2,19.8-10.9c0.4,0.1,0.7,0.4,1,0.7c0.8,1.4-0.1,2.1-4.5,5.5c-2.6,2-6.1,4.6-9.7,7.3
			l-0.1,0.1c16.7-10.2,16.9-10.1,17.9-9.9c0.4,0.1,0.8,0.4,1,0.7c0.8,1.4-0.1,2.2-4.7,5.7c-0.5,0.4-1.1,0.8-1.7,1.2
			c4-2.4,4.3-2.3,4.9-2.1c0.4,0.1,0.8,0.4,1,0.7c0.8,1.3-0.2,2.1-4.1,5.2c-1.2,0.9-2.5,2-4,3.1c12.8-7.8,13.6-8,14.6-7.8
			c0.4,0.1,0.8,0.4,1,0.7c0.7,1.3,0.8,1.4-8.4,8.2c12.3-7.5,12.6-7.4,13.5-7.2c0.4,0.1,0.8,0.4,1,0.7c0.8,1.4-0.1,2.2-4.7,5.7
			c-0.5,0.4-1,0.7-1.5,1.1c6.7-4.1,7.3-4.2,8.1-4c0.4,0.1,0.8,0.4,1,0.7c0.8,1.4-0.1,2.2-5.3,6.1c-1.3,1-2.9,2.2-4.5,3.4
			c10.3-6.3,10.5-6.2,11.4-6c0.4,0.1,0.7,0.4,0.9,0.7c0.8,1.4-0.3,2.2-3.9,5c-0.9,0.7-1.8,1.4-2.9,2.2c9.9-6,10.1-6,11-5.8
			c0.4,0.1,0.8,0.4,1,0.7c0.8,1.4,0.9,1.6-11.8,11.4c0.7-0.4,1.3-0.8,2-1.2c16.9-10.4,17.2-10.3,18.2-10.1c0.4,0.1,0.8,0.4,1,0.7
			c0.8,1.5-0.1,2.3-6.2,6.6c-0.2,0.2-0.5,0.3-0.7,0.5c4.8-2.8,5.5-2.9,6.1-2.7c0.4,0.1,0.8,0.4,1,0.7c0.8,1.5,0.9,1.5-13.6,12.4
			c16-9.6,16.1-9.6,17.1-9.4c0.4,0.1,0.7,0.4,0.9,0.7c0.8,1.4-0.2,2.1-4.8,5.8c-2,1.6-4.6,3.6-7.3,5.6c17-10.3,17.2-10.2,18.1-10
			c0.4,0.1,0.8,0.4,1,0.7c0.8,1.4-0.1,2.1-4.8,5.7c-1.2,0.9-2.5,1.9-4,3c10.8-6.6,11.6-6.8,12.5-6.5c0.4,0.1,0.8,0.4,1,0.7
			c0.9,1.5,0.9,1.6-14.3,12.3c17.7-10.7,18-10.6,18.9-10.4c0.4,0.1,0.7,0.4,1,0.7c0.8,1.4-0.1,2.1-5.7,6.2c-1.6,1.2-3.5,2.5-5.6,3.9
			c14.4-8.7,15.4-9,16.4-8.8c0.4,0.1,0.8,0.4,1,0.7c0.8,1.4,0,2.1-5.7,6.3c-2.5,1.8-5.7,4.1-9.1,6.5c17.4-10.5,17.7-10.4,18.7-10.1
			c0.4,0.1,0.8,0.4,1,0.7c0.8,1.4-0.1,2.1-4.7,5.5c-1,0.7-2.1,1.5-3.3,2.4c3.5-2,4.1-2.1,4.7-1.9c0.4,0.1,0.8,0.4,1,0.7
			c0.7,1.3,0.8,1.4-8.6,8.7c9.2-5.7,10.4-6.2,11.4-5.9c0.4,0.1,0.8,0.4,1,0.7c0.8,1.4-0.2,2.2-4.1,5.3c-1.1,0.9-2.5,1.9-3.9,3.1
			c15.2-9.3,16-9.6,17.1-9.4c0.4,0.1,0.8,0.4,1,0.7c0.8,1.4-0.1,2.1-4.4,5.4c-2.5,2-5.9,4.5-9.5,7.2l-0.1,0.1
			c0.1-0.1,0.3-0.2,0.4-0.2c17.7-10.9,18.6-11.2,19.7-10.9c0.4,0.1,0.8,0.4,1,0.7c0.8,1.4,0.2,2-6.4,7c-2.1,1.6-4.6,3.4-7.3,5.3
			c16.7-10,16.9-10,17.9-9.7c0.4,0.1,0.7,0.4,1,0.7c0.8,1.4,0.1,2.1-5.9,6.4c-1.1,0.8-2.4,1.7-3.7,2.6c9.7-5.8,10.1-5.7,10.9-5.5
			c0.4,0.1,0.8,0.4,1,0.7c0.8,1.4,0.9,1.5-11.4,10.1c10.9-6.6,11.3-6.5,12.1-6.3c0.4,0.1,0.8,0.4,1,0.7c0.8,1.4-0.1,2.2-5.3,6.1
			c-1.9,1.5-4.3,3.2-6.8,5.1c14.8-9,15.8-9.4,16.9-9.1c0.4,0.1,0.8,0.4,1,0.7c0.8,1.4,0.9,1.6-11.6,11.2
			c16.9-10.3,17.9-10.7,19-10.4c0.4,0.1,0.8,0.4,1,0.7c0.8,1.3,0.9,1.5-10.2,9.4c7.1-4.2,7.7-4.4,8.5-4.2c0.4,0.1,0.8,0.4,1,0.7
			c0.8,1.4-0.2,2.2-5.3,6c-1.2,0.8-2.5,1.8-3.9,2.8c17.2-10.5,18-10.8,19.1-10.5c0.4,0.1,0.8,0.4,1,0.7c0.8,1.4,1,1.7-10.7,9.9
			c11.8-7.1,12.8-7.4,13.7-7.1c0.4,0.1,0.8,0.4,1,0.7c0.9,1.5,0.9,1.6-15.4,13.1c13.8-8.4,14.1-8.3,15.1-8.1c0.4,0.1,0.8,0.4,1,0.7
			c0.8,1.4,0.1,2-5.8,6.3c-1,0.7-2.1,1.6-3.3,2.4c10.2-6.2,10.9-6.4,11.8-6.2c0.4,0.1,0.8,0.4,1,0.7c0.8,1.4,0,2.2-5.9,6.4
			c-0.8,0.6-1.6,1.1-2.5,1.8c8.2-4.9,8.5-4.9,9.3-4.7c0.4,0.1,0.8,0.4,1,0.7c0.8,1.5,0.8,1.5-13,11.8c-0.2,0.1-0.4,0.3-0.6,0.4
			c1-0.6,2.1-1.3,3.1-1.9c20-12.2,21-12.6,22.1-12.3c0.4,0.1,0.8,0.4,1,0.7c0.8,1.4,0.1,2-5.9,6.4c-0.9,0.6-1.8,1.3-2.8,2
			c6.8-4.1,8-4.5,8.9-4.3c0.4,0.1,0.8,0.4,1,0.7c0.9,1.5-0.2,2.2-5.9,6.2c-2.2,1.6-5,3.4-8,5.5c13.9-8.5,14.2-8.4,15.1-8.2
			c0.4,0.1,0.8,0.4,1,0.7c0.8,1.4-0.2,2.2-5.6,6.2c-1.7,1.2-3.7,2.7-5.8,4.2c14.3-8.8,14.5-8.7,15.5-8.5c0.4,0.1,0.8,0.4,1,0.7
			c0.9,1.6,0.9,1.6-16.9,14.1c0.1-0.1,0.2-0.1,0.4-0.2c22.4-13.7,23.5-14.1,24.7-13.8c0.4,0.1,0.8,0.4,1,0.7c0.8,1.4,0.2,2.1-6.8,7
			c-2.2,1.6-5,3.5-7.8,5.4c15.1-9.1,15.4-9.1,16.3-8.9c0.4,0.1,0.7,0.4,1,0.7c1,1.7,1,1.7-20.8,16.7c-2.9,2-5.9,4.1-8.8,6.1
			c16.2-9.2,44.8-26.5,69.2-41.3c59.2-35.9,76.8-46.3,79.5-45.6c0.4,0.1,0.8,0.4,1,0.8c0.9,1.5,0,2.6-7.1,7.3
			c-0.8,0.6-1.8,1.2-2.7,1.8c0.7-0.2,1.2-0.3,1.5-0.2c0.5,0.1,0.8,0.4,1.1,0.8c0.8,1.3,0.4,2.6-10.6,9.7c1-0.4,1.6-0.5,2-0.4
			s0.8,0.4,1,0.8c0.9,1.5-0.4,2.8-5.1,5.9c-2.8,1.9-6.9,4.5-12.5,7.9c0.2,0,0.4,0,0.6,0c0.4,0.1,0.8,0.4,1,0.8
			c0.9,1.6-0.7,2.9-4.6,5.6c-2,1.4-4.6,3.1-8,5.2c1.7-0.7,2.6-0.9,3.1-0.8c0.4,0.1,0.8,0.4,1,0.8c0.8,1.4,1.1,2-14.7,11.8
			c1.8-0.8,2.7-1,3.2-0.9c0.4,0.1,0.8,0.4,1,0.8c0.9,1.6,1.2,2-20,15.1c0.7-0.2,1.1-0.2,1.4-0.1c0.4,0.1,0.8,0.4,1,0.8
			c0.8,1.4-0.6,2.5-2.6,4c-1.4,1.1-3.5,2.5-6.4,4.4c-1,0.7-2,1.3-3.1,2.1c4.2-2.4,4.8-2.4,5.5-2.3c0.4,0.1,0.8,0.4,1,0.7
			c0.8,1.4,0.3,2.1-7.7,7.8c-2.3,1.6-4.9,3.4-7.8,5.3c0.6-0.2,0.8-0.2,1.1-0.1c0.4,0.1,0.8,0.4,1,0.7c0.4,0.7,0.2,1.6-0.5,2
			c-0.2,0.1-0.5,0.2-0.8,0.2c-1.8,0.7-10.1,5.8-16.2,9.5C396.9,556.2,393.6,558.2,391.5,559.5z M417.4,542.7L417.4,542.7
			L417.4,542.7z M417.4,542.6L417.4,542.6L417.4,542.6z M417.4,542.6L417.4,542.6L417.4,542.6z M417.4,542.6L417.4,542.6
			L417.4,542.6z M417.4,542.6L417.4,542.6L417.4,542.6z M417.4,542.6L417.4,542.6L417.4,542.6z M417.4,542.6L417.4,542.6
			L417.4,542.6z M417.3,542.6L417.3,542.6L417.3,542.6z M417.3,542.6L417.3,542.6L417.3,542.6z M417.3,542.6L417.3,542.6
			L417.3,542.6z M417.3,542.6L417.3,542.6L417.3,542.6z M417.3,542.6L417.3,542.6L417.3,542.6z M417.3,542.6L417.3,542.6
			L417.3,542.6z M366.6,537.4c11.5-6.5,28.7-16.9,45.8-27.2C395.3,520.2,377.9,530.4,366.6,537.4z M479.7,467.3
			c-5.5,3.2-11.8,7-18.6,11.2C467.9,474.4,474.3,470.6,479.7,467.3z M366.3,532.3c9.2-5.2,21.6-12.7,34.6-20.6
			C387.7,519.5,375.3,526.8,366.3,532.3z M486.2,457.9c-9.9,5.8-22.8,13.5-36.3,21.7C463.4,471.7,476.4,464,486.2,457.9z
			 M276.9,147.4c0.2,0.1,0.3,0.3,0.4,0.5C277.2,147.6,277.1,147.5,276.9,147.4z M401.1,506.9c-9.6,5.5-12.8,6.9-14,6.6
			c-0.4-0.1-0.8-0.4-1-0.8c-0.8-1.4-0.4-2.8,10.3-9.7c-0.2,0-0.4,0-0.5,0c-0.5-0.1-0.8-0.4-1.1-0.8c-0.9-1.5-1.3-2.3,18.8-14.7
			c-0.5,0.1-0.9,0.1-1.1,0.1c-0.4-0.1-0.8-0.4-1-0.8c-0.8-1.3-0.4-2.6,10.9-10c-4.3,2.3-6.2,2.9-7,2.7c-0.4-0.1-0.8-0.4-1-0.8
			c-0.9-1.6-0.3-3.2,15.6-13.1c-0.2,0-0.4,0-0.5,0c-0.5-0.1-0.9-0.4-1.1-0.8c-0.9-1.6,0.3-3,6-6.9c1.4-1,3.2-2.1,5.2-3.4
			c-1.5,0.6-2.5,0.8-3,0.7c-0.5-0.1-0.9-0.4-1.1-0.8c-0.9-1.5,0-2.8,7.1-7.6c1.6-1.1,3.5-2.3,5.8-3.8c-0.4-0.1-0.8-0.4-1-0.8
			c-0.9-1.5,0-2.9,7-7.6c0.5-0.3,0.9-0.6,1.5-1c-0.2,0-0.3,0-0.4,0c-0.5-0.1-0.9-0.4-1.1-0.8c-0.9-1.6-0.3-3.1,17.7-14.2
			c-0.9,0.3-1.6,0.4-2,0.3c-0.5-0.1-0.9-0.4-1.1-0.8c-0.8-1.4-1.2-2.2,16.9-13.2c-3.7,1.9-5.7,2.6-6.5,2.4c-0.5-0.1-0.8-0.4-1.1-0.8
			c-0.9-1.5-0.3-3,13.7-11.8c-1.2,0.5-1.9,0.6-2.3,0.5s-0.8-0.4-1-0.8c-0.9-1.5,0.2-2.8,6-6.6c0.6-0.4,1.3-0.8,2-1.3
			c-0.7,0.2-1.2,0.2-1.5,0.1c-0.5-0.1-0.9-0.4-1.1-0.8c-0.8-1.4-0.4-2.7,10.8-9.8c-0.9,0.3-1.5,0.3-1.8,0.2
			c-0.5-0.1-0.9-0.4-1.1-0.8c-0.9-1.6,0.4-3.1,6.7-7.4c1.3-0.9,2.8-1.9,4.5-3c-1.1,0.4-1.8,0.5-2.2,0.4c-0.4-0.1-0.8-0.4-1-0.8
			s-0.3-0.9-0.2-1.4c0.4-1.4,3.9-4.2,11-8.8c-0.2,0-0.4,0-0.6,0c-0.5-0.1-0.9-0.4-1.1-0.8c-0.2-0.4-0.3-0.9-0.2-1.4
			c0.4-1.4,4.3-4.4,13.2-10.1c-0.8,0.2-1.3,0.3-1.7,0.2c-0.5-0.1-0.8-0.4-1.1-0.8c-0.9-1.6,0.1-3,8-8.2c1.1-0.7,2.3-1.5,3.7-2.4
			c-0.1,0-0.1,0-0.1,0c-0.4-0.1-0.8-0.4-1-0.8c-0.8-1.4-1.3-2.2,15-12.1c-1.8,0.8-2.8,1.1-3.4,0.9c-0.4-0.1-0.8-0.4-1-0.8
			s-0.3-0.9-0.2-1.4c0.4-1.5,4.5-4.6,12.6-9.9c-0.5,0.1-0.9,0.1-1.1,0.1c-0.5-0.1-0.9-0.4-1.1-0.8c-0.2-0.4-0.3-0.8-0.2-1.3
			c0.3-1,2.7-3,8.5-6.8c-1.6,0.6-2.6,0.8-3.2,0.7c-0.5-0.1-0.9-0.4-1.1-0.8s-0.3-0.9-0.2-1.4c0.4-1.6,5-5,15.7-11.6
			c-0.1,0-0.1,0-0.2,0c-0.5-0.1-0.9-0.4-1.1-0.8c-0.8-1.4-1.3-2.2,14-11.6c-1.8,0.7-2.9,1-3.5,0.8c-0.5-0.1-0.9-0.4-1.1-0.8
			c-0.8-1.4-1.2-2.2,13.9-11.5c-0.5,0.1-0.9,0.1-1.1,0.1c-0.5-0.1-0.8-0.4-1.1-0.8c-0.9-1.6,0.3-2.8,6.6-7.1
			c0.8-0.5,1.6-1.1,2.6-1.7c-0.7,0.2-1.1,0.3-1.4,0.2c-0.4-0.1-0.8-0.4-1-0.8c-0.9-1.5-0.4-2.9,14-12c-0.8,0.3-1.3,0.3-1.6,0.2
			c-0.4-0.1-0.8-0.4-1-0.8c-0.8-1.4-1.1-2,14-11.3c-4.5,2.4-6.6,3.1-7.5,2.9c-0.5-0.1-0.8-0.4-1.1-0.8c-0.8-1.5-1.2-2.1,16.1-12.8
			c-4.4,2.4-6.1,3-6.9,2.8c-0.4-0.1-0.8-0.4-1-0.8c-0.9-1.5,0.6-2.8,4.5-5.5c1.6-1.1,3.6-2.4,6.1-4c-0.5,0.1-0.8,0.1-1,0.1
			c-0.4-0.1-0.8-0.4-1-0.7c-0.8-1.4-1.2-2,13.2-11.1c-0.9,0.4-1.4,0.4-1.7,0.3c-0.4-0.1-0.8-0.4-1-0.7c-0.9-1.5-1.1-1.9,19-14.6
			c-3.2,1.7-4.1,1.9-4.8,1.8c-0.4-0.1-0.8-0.4-1-0.8c-1-1.8-1-1.8,26.8-19.7c0.4-0.3,0.8-0.5,1.2-0.8c-1,0.6-2,1.2-3,1.8
			c-26.2,16-27.4,16.5-28.6,16.2c-0.4-0.1-0.8-0.4-1-0.7c-0.8-1.5-0.4-2,8.4-7.8c-13.8,8.3-16.1,9.3-17.3,9c-0.4-0.1-0.8-0.4-1-0.8
			c-0.8-1.5-0.6-2.1,10.2-9.4c0.9-0.6,1.9-1.3,2.9-2c-12.1,7.3-14.3,8.1-15.3,7.9c-0.4-0.1-0.8-0.4-1-0.7c-1-1.7-1.1-1.9,22.8-17.2
			c-21.1,13-24,14.4-25.4,14c-0.4-0.1-0.8-0.4-1-0.8c-0.8-1.5-0.3-2.1,8.5-8c3.6-2.4,8-5.3,12.9-8.4c-20.2,12.4-22.3,13.5-23.6,13.2
			c-0.4-0.1-0.8-0.4-1-0.7c-0.8-1.4,0.6-2.5,2.6-4c1.4-1.1,3.6-2.5,6.5-4.4c2.7-1.8,5.8-3.8,9.2-6c-26.3,15.9-27.9,16.5-29,16.2
			c-0.4-0.1-0.8-0.4-1-0.7c-0.9-1.5-1.1-1.9,18-14.4c-13,7.8-15.7,9-16.9,8.7c-0.4-0.1-0.8-0.4-1-0.8c-0.8-1.4-0.6-2,9.3-8.7
			c0.8-0.6,1.7-1.1,2.6-1.7c-15.1,9.2-17.3,10.2-18.5,9.9c-0.4-0.1-0.8-0.4-1-0.7c-0.9-1.6-1.1-2,20.7-16.3
			c-16.4,10.1-18.5,11-19.7,10.7c-0.4-0.1-0.8-0.4-1-0.7c-0.8-1.3-0.7-2,7.3-7.3c-10.3,6.2-11.3,6.4-12.1,6.2
			c-0.4-0.1-0.8-0.4-1-0.7c-0.8-1.5-1.1-1.8,15.3-12.4c-18.5,11-19.9,11.5-20.9,11.3c-0.4-0.1-0.8-0.4-1-0.7c-0.7-1.2-0.7-1.9,5.4-6
			c-9.1,5.3-11,6-11.9,5.8c-0.4-0.1-0.8-0.4-1-0.7c-0.9-1.5-1.1-1.9,17.3-13.7c-12.8,7.7-15,8.6-16.2,8.3c-0.4-0.1-0.8-0.4-1-0.8
			c-0.8-1.4-0.7-2,8.8-8.3c-11.6,7-14.7,8.5-15.9,8.2c-0.4-0.1-0.8-0.4-1-0.8c-0.8-1.5-0.7-2,9.7-8.9c0.6-0.4,1.1-0.8,1.7-1.1
			c-8.6,5.1-11.2,6.2-12.3,5.9c-0.4-0.1-0.8-0.4-1-0.8c-0.9-1.6-1.2-2,19.9-15.6c-25.4,15.5-28.6,17.1-29.9,16.7
			c-0.4-0.1-0.8-0.4-1-0.7c-0.9-1.5-0.6-2.2,10.9-9.7c1.8-1.2,3.8-2.4,5.9-3.8c-14.9,8.9-17.1,9.9-18.1,9.6c-0.4-0.1-0.8-0.4-1-0.7
			c-0.9-1.5-0.6-2.2,10.5-9.4c-8.2,4.9-9.7,5.4-10.6,5.2c-0.4-0.1-0.8-0.4-1-0.7c-0.8-1.4,0.6-2.5,2.8-4.1c1.6-1.2,3.8-2.7,7-4.8
			c2.2-1.5,4.7-3.1,7.4-4.9c-16.5,10-19.6,11.4-20.8,11.1c-0.4-0.1-0.8-0.4-1-0.8c-0.9-1.5-0.6-2.2,9.8-9c0.4-0.3,0.9-0.6,1.3-0.9
			c-11.6,6.9-13.4,7.7-14.4,7.4c-0.4-0.1-0.8-0.4-1-0.7c-0.8-1.4,0.5-2.4,2.6-3.8c1.4-1,3.4-2.3,6.2-4.1c0.5-0.3,1-0.7,1.6-1
			c-11.1,6.6-13.2,7.4-14.3,7.2c-0.4-0.1-0.8-0.4-1-0.8c-1-1.8-1.1-1.9,29.4-21.6c-0.2,0.1-0.4,0.2-0.6,0.3
			c-29,17.8-34.4,20.9-36.1,20.5c-0.4-0.1-0.8-0.4-1-0.8c-0.8-1.4-1.1-1.9,15.4-12.6c-12.3,7.4-14.9,8.5-16,8.2
			c-0.4-0.1-0.8-0.4-1-0.8c-0.7-1.2-0.5-1.8,4.6-5.3c-6.5,3.7-8.8,4.6-9.8,4.4c-0.4-0.1-0.8-0.4-1-0.8c-1-1.7-1.1-1.9,23-17.6
			c-27.8,16.9-31,18.6-32.4,18.2c-0.4-0.1-0.8-0.4-1-0.7c-0.8-1.5,0.7-2.5,2.9-4.2c1.6-1.2,4-2.8,7.3-4.9c1.3-0.9,2.8-1.8,4.3-2.7
			c-7.8,4.5-9.8,5.3-10.7,5.1c-0.4-0.1-0.8-0.4-1-0.7c-0.8-1.4-1.1-1.9,12.5-10.7c-18.2,10.9-20.8,12.1-22,11.8
			c-0.4-0.1-0.8-0.4-1-0.7c-0.8-1.4-1.1-1.9,12.4-10.7c-11.7,6.9-14.4,8.1-15.6,7.8c-0.4-0.1-0.8-0.4-1-0.8
			c-0.7-1.3-1.1-1.8,9.5-8.8c-8.2,4.8-9.7,5.3-10.5,5.1c-0.4-0.1-0.8-0.4-1-0.7c-0.7-1.3-1-1.7,10.4-9.2c-9.8,5.8-11.7,6.5-12.7,6.2
			c-0.4-0.1-0.8-0.4-1-0.7c-0.9-1.5-1.2-2,18.6-14.9c-18.5,11.3-20.8,12.4-22,12.1c-0.4-0.1-0.8-0.4-1-0.7c-1-1.7-1.2-2.1,23.3-17.9
			c-28.2,17-29.9,17.7-31.1,17.4c-0.4-0.1-0.8-0.4-1-0.7c-0.9-1.5-1.1-1.9,17.8-14.1c-17.5,10.6-20.8,12.1-22.1,11.8
			c-0.4-0.1-0.8-0.4-1-0.8c-0.7-1.3-1.1-1.8,10.2-9.3c-8.3,4.9-10.3,5.7-11.3,5.4c-0.4-0.1-0.8-0.4-1-0.8c-0.7-1.2-1-1.7,6.8-6.9
			c-7.5,4.3-9.4,5-10.3,4.8c-0.4-0.1-0.8-0.4-1-0.8c-0.8-1.4,0.6-2.4,2.7-4c1.5-1.1,3.6-2.5,6.6-4.5c4.5-3,10.3-6.6,16.5-10.6
			c-30,18.2-33.5,20-35,19.7c-0.4-0.1-0.8-0.4-1-0.7c-0.8-1.5-1.1-1.9,14.9-12c-15.5,9.3-17.9,10.3-19,10c-0.4-0.1-0.8-0.4-1-0.7
			c-0.9-1.5,0.6-2.7,3.4-4.7c1.9-1.4,4.8-3.4,8.7-5.9c0.6-0.4,1.2-0.8,1.8-1.2c-12,7.1-14.6,8.2-15.8,8c-0.4-0.1-0.8-0.4-1-0.8
			c-0.9-1.5-1.1-2,16.6-13.3c-14.9,9-17.8,10.3-19,10c-0.4-0.1-0.8-0.4-1-0.8c-0.9-1.5-0.6-2.1,10.5-9.3c4.1-2.7,9.2-5.9,14.7-9.3
			c-25,15.2-27.9,16.7-29.2,16.3c-0.4-0.1-0.8-0.4-1-0.7c-0.7-1.3-1-1.7,8.9-8.1l0,0c-6.4,3.7-7.9,4.2-8.8,3.9
			c-0.4-0.1-0.8-0.4-1-0.8c-0.8-1.4-0.7-2,9.3-8.4c1.1-0.7,2.4-1.5,3.7-2.4c-18.5,11.3-20.7,12.3-21.8,12c-0.4-0.1-0.8-0.4-1-0.7
			c-0.9-1.5-0.6-2.2,10.9-9.7c0,0,0,0,0.1,0c-10.6,6.3-13.7,7.7-14.9,7.4c-0.4-0.1-0.8-0.4-1-0.8c-0.9-1.5,0.9-2.8,3.3-4.6
			c1.5-1.1,3.4-2.4,6-4.1c-6.7,3.8-8.6,4.5-9.6,4.3c-0.4-0.1-0.8-0.4-1-0.8c-0.6-1.1-1-1.7,6.3-6.6c-7.8,4.6-9.3,5.1-10.1,4.9
			c-0.4-0.1-0.8-0.4-1-0.7c-0.7-1.2-1-1.8,8-7.8c-7.7,4.5-10.3,5.6-11.3,5.3c-0.4-0.1-0.8-0.4-1-0.8c-1-1.7-1.2-2,22.3-17.1
			c-24.2,14.7-27.3,16.2-28.6,15.9c-0.4-0.1-0.8-0.4-1-0.7c-0.9-1.6,0.9-2.8,3.4-4.6c1.1-0.8,2.6-1.8,4.3-3
			c-6.7,3.8-8.6,4.5-9.6,4.2c-0.4-0.1-0.8-0.4-1-0.8c-0.7-1.2-1-1.7,7.9-7.5c-8.3,4.9-10.1,5.6-11.1,5.3c-0.4-0.1-0.8-0.4-1-0.8
			c-0.7-1.2-1-1.8,7.3-7.3c-8.2,4.8-10.2,5.5-11.2,5.3c-0.4-0.1-0.8-0.4-1-0.8c-0.6-1.1-0.7-1.7,3.3-4.5c-6.4,3.6-8.2,4.2-9.1,4
			c-0.4-0.1-0.8-0.4-1-0.8c-1.1-1.8-1.2-2,30.5-22c-30.6,18.6-34.5,20.6-35.9,20.2c-0.4-0.1-0.8-0.4-1-0.7
			c-0.9-1.5-0.6-2.1,10.9-9.6c6.5-4.2,15.2-9.6,24.3-15.3c0.3-0.2,0.7-0.4,1-0.6c-1.2,0.7-2.4,1.5-3.6,2.2
			C409,25.4,407.3,26.1,406,25.8c-0.4-0.1-0.8-0.4-1-0.7c-0.7-1.1-1-1.7,6.5-6.8c-4.3,2.4-5.4,2.7-6.1,2.5c-0.4-0.1-0.8-0.4-1-0.7
			c-0.9-1.5-0.6-2.1,10.5-9.5c2.3-1.5,4.9-3.2,7.7-5c-17,10.4-19.3,11.4-20.5,11.1c-0.4-0.1-0.8-0.4-1-0.7c-0.9-1.5,0.8-2.8,3.2-4.5
			c1.8-1.3,4.4-3.1,8-5.4c0.4-0.3,0.8-0.5,1.2-0.8C394,17,391.3,18.3,390,17.9c-0.4-0.1-0.8-0.4-1-0.7c-0.8-1.4-1.1-1.9,16-12.8
			c-11.9,7-14.7,8.2-15.9,7.9c-0.4-0.1-0.8-0.4-1-0.8c-0.9-1.5-0.7-2.1,10.1-9.1c2.5-1.6,5.3-3.4,8.3-5.3
			c-20,12.1-23.6,13.8-25,13.5c-0.4-0.1-0.8-0.4-1-0.8c-0.9-1.5,0.8-2.7,3.2-4.4c0.6-0.4,1.3-0.9,2.2-1.5c-2.5,1.3-3.7,1.6-4.3,1.4
			c-0.4-0.1-0.8-0.4-1-0.8c-0.9-1.5,0.9-2.8,3.3-4.6c0.5-0.4,1-0.8,1.7-1.2c-9.5,5.6-11.7,6.5-12.7,6.2c-0.4-0.1-0.8-0.4-1-0.8
			c-0.7-1.2-1.1-1.8,8.6-8.2c-8.2,4.9-9.6,5.4-10.5,5.2c-0.4-0.1-0.8-0.4-1-0.7c-0.8-1.5,0.6-2.5,2.9-4.1c1.6-1.1,4-2.7,7.3-4.8
			c0.4-0.2,0.8-0.5,1.1-0.7c-12.7,7.5-15.5,8.7-16.7,8.5c-0.4-0.1-0.8-0.4-1-0.8c-0.8-1.5-1-1.8,15.6-12.5
			C367.1-7.4,365-6.6,364-6.8c-0.4-0.1-0.8-0.4-1-0.7c-0.8-1.5-1.1-1.9,15.2-12.5c-3.9,2.2-4.5,2.3-5.1,2.1c-0.4-0.1-0.8-0.4-1-0.7
			c-0.8-1.5-0.4-2,8.2-7.8c3.5-2.4,7.8-5.2,12.5-8.3c-14.3,8.6-15.2,8.9-16.2,8.7c-0.4-0.1-0.8-0.4-1-0.7c-0.8-1.4-0.2-2.1,7.1-7.3
			c2.8-2,6.2-4.3,9.8-6.8c-4.3,2.6-4.6,2.5-5.2,2.3c-0.4-0.1-0.7-0.4-1-0.7c-0.8-1.4,0.1-2.1,4.3-5.4c1.7-1.3,3.7-2.9,5.9-4.6
			c-5.5,3.3-5.7,3.3-6.4,3.1c-0.4-0.1-0.7-0.4-0.9-0.7c-0.8-1.3-0.8-1.4,8.8-9.3c-3.8,2.2-3.9,2.2-4.6,2c-0.4-0.1-0.7-0.4-0.9-0.7
			c-0.7-1.2-0.7-1.2,5.5-7.2c2.2-2.1,5.4-5.2,6.3-6.3c0.1-0.3,0.3-0.7,0.7-0.8c0.3-0.2,0.7-0.3,1-0.3c0.5,0,0.9,0.3,1.2,0.8
			c0.6,1.1,0.7,1.2-4.2,6.1c8.7-5.2,8.7-5.2,9.5-5c0.4,0.1,0.7,0.4,0.9,0.7c0.8,1.3,0.8,1.4-9.1,9.4c8.8-5.4,9.1-5.3,9.9-5.1
			c0.4,0.1,0.8,0.4,1,0.7c0.8,1.4-0.1,2.1-4.4,5.5c-1.5,1.2-3.3,2.5-5.2,4c12.9-7.9,13.8-8.1,14.8-7.9c0.4,0.1,0.8,0.4,1,0.7
			c0.8,1.4,0.2,2.1-6.9,7.1c-3.1,2.2-7.1,5-11.2,7.8c21.7-13.2,23-13.6,24.1-13.4c0.4,0.1,0.8,0.4,1,0.7c0.8,1.4,0.7,2-9.1,8.6
			c-2.3,1.6-5,3.4-7.9,5.3c12-7.2,12.9-7.4,13.8-7.2c0.4,0.1,0.8,0.4,1,0.7c1,1.7,1.1,1.9-23,17.3c23.9-14.5,25.4-15.1,26.5-14.8
			c0.4,0.1,0.8,0.4,1,0.7c0.9,1.5,1.1,2-19.5,15.2c25.7-15.6,28.6-17.1,29.9-16.7c0.4,0.1,0.8,0.4,1,0.7c0.7,1.2,1,1.8-7.9,7.7
			c3.2-1.7,4.5-2,5.1-1.8c0.4,0.1,0.8,0.4,1,0.8c0.8,1.4,1,1.8-13.1,10.8c14.1-8.5,16.3-9.4,17.4-9.1c0.4,0.1,0.8,0.4,1,0.7
			c0.8,1.4-0.5,2.4-2.5,3.8c-1.4,1-3.4,2.3-6.1,4.1c-1.8,1.1-3.7,2.4-5.8,3.7c17.7-10.8,20.4-12,21.7-11.7c0.4,0.1,0.8,0.4,1,0.8
			c0.9,1.5-0.8,2.7-3.2,4.4c-0.7,0.5-1.6,1.1-2.6,1.8c0,0,0.1,0,0.1-0.1c6.7-3.9,8.2-4.4,9-4.1c0.4,0.1,0.8,0.4,1,0.7
			c0.9,1.5-0.8,2.8-3.2,4.5c-1.8,1.3-4.5,3.2-8.1,5.5c-3.4,2.2-7.3,4.7-11.6,7.4C459.6-32.4,461-33,462.2-32.7
			c0.4,0.1,0.8,0.4,1,0.7c0.9,1.6,1.1,2-21.5,16.4c20.6-12.4,24.2-14.2,25.5-13.8c0.4,0.1,0.8,0.4,1,0.8c0.8,1.4-0.7,2.5-2.7,4
			c-1.5,1.1-3.7,2.6-6.7,4.5c-0.6,0.4-1.2,0.8-1.9,1.2c10.2-6,12.5-7,13.6-6.7c0.4,0.1,0.8,0.4,1,0.8c0.8,1.5,0.6,2.1-10.1,9.1
			c-2.1,1.3-4.4,2.8-6.9,4.4C473.8-23,476.7-24.3,478-24c0.4,0.1,0.8,0.4,1,0.7c0.8,1.5-0.7,2.5-3,4.1c-1,0.7-2.2,1.5-3.7,2.5
			c7.3-4.2,9.4-4.9,10.3-4.7c0.4,0.1,0.8,0.4,1,0.8c0.9,1.5-0.7,2.7-3.4,4.7c-2,1.4-4.9,3.4-8.8,5.9c-1,0.7-2.1,1.4-3.2,2.1
			c14.2-8.5,16.5-9.5,17.6-9.2c0.4,0.1,0.8,0.4,1,0.7c0.9,1.5-0.6,2.6-3.5,4.7c-2,1.4-4.8,3.4-8.8,6c-3.9,2.6-8.6,5.6-13.5,8.7
			c28.3-17.2,29.9-17.9,31.1-17.6c0.4,0.1,0.8,0.4,1,0.7c0.7,1.2,0.7,1.9-5.5,6c5-2.8,6.2-3.2,7-3c0.4,0.1,0.8,0.4,1,0.7
			c0.9,1.5-0.7,2.6-2.9,4.2c-1.5,1.1-3.8,2.6-6.8,4.6c0.1-0.1,0.2-0.1,0.3-0.2c6.4-3.7,8-4.2,8.9-4c0.4,0.1,0.8,0.4,1,0.8
			c0.8,1.4,1.1,1.9-13.9,11.5C503.6-5.9,506-7,507.2-6.7c0.4,0.1,0.8,0.4,1,0.7c0.9,1.5-0.7,2.6-3.1,4.4c-1.8,1.3-4.3,3-7.9,5.3
			c-0.6,0.4-1.3,0.8-2,1.3c8.5-5,10.3-5.6,11.2-5.4c0.4,0.1,0.8,0.4,1,0.7c0.9,1.5,0.7,2-10.1,9.2c-5,3.3-11.5,7.5-18.1,11.7
			c25.9-15.9,28.6-17.3,30-17c0.4,0.1,0.8,0.4,1,0.7c0.8,1.4-0.7,2.5-2.7,4c-1.5,1.1-3.7,2.6-6.7,4.6c-0.9,0.6-1.9,1.2-2.9,1.9
			c16.7-10,20.1-11.6,21.4-11.3c0.4,0.1,0.8,0.4,1,0.8c0.8,1.4-0.6,2.5-2.9,4.1c-1.6,1.1-3.9,2.7-7.1,4.7c-0.6,0.4-1.1,0.7-1.7,1.1
			c13.2-7.9,15-8.7,16-8.4c0.4,0.1,0.8,0.4,1,0.7c0.9,1.5-0.8,2.7-3.1,4.4c-1.7,1.3-4.3,3-7.8,5.3c-1.5,1-3.1,2-4.9,3.1
			c13.5-8.1,15.9-9.1,17-8.8c0.4,0.1,0.8,0.4,1,0.8c0.8,1.4,0.6,2.1-9.2,8.6c6.2-3.5,8.5-4.4,9.4-4.2c0.4,0.1,0.8,0.4,1,0.8
			c0.7,1.2,0.7,1.8-5.3,5.9c5.7-3.3,7.1-3.7,7.9-3.5c0.4,0.1,0.8,0.4,1,0.7c0.6,1.1,0.9,1.6-5.4,6c12.4-7.3,15.2-8.5,16.4-8.2
			c0.4,0.1,0.8,0.4,1,0.8c0.8,1.4,1.1,2-11.9,10.4c8.3-4.9,9.9-5.5,10.8-5.2c0.4,0.1,0.8,0.4,1,0.7c0.9,1.5,0.6,2.1-10.7,9.5
			c-4.1,2.7-9.2,6-14.5,9.3c27.4-16.7,30.7-18.4,32.1-18.1c0.4,0.1,0.8,0.4,1,0.7c0.9,1.5,0.6,2.1-10.5,9.4
			c-5.6,3.7-12.9,8.2-20.7,13.1c28.7-17.3,31.8-19,33.2-18.6c0.4,0.1,0.8,0.4,1,0.7c0.7,1.2,1.1,1.8-9.2,8.6c10.1-6,12-6.7,13-6.4
			c0.4,0.1,0.8,0.4,1,0.7c0.9,1.5,1.2,2-16.1,13.2c14.7-8.9,16.8-9.8,17.9-9.6c0.4,0.1,0.8,0.4,1,0.7c0.8,1.4,1,1.8-11.7,10
			c11.7-7,13.7-7.8,14.7-7.6c0.4,0.1,0.8,0.4,1,0.7c1,1.8,1.1,1.9-29,21c0.3-0.2,0.6-0.4,0.9-0.5c29.8-18.2,32.9-19.8,34.3-19.4
			c0.4,0.1,0.8,0.4,1,0.7c1,1.7,1.1,2-23.7,17.8c22.6-13.6,25.5-15,26.7-14.7c0.4,0.1,0.8,0.4,1,0.7c0.8,1.4,0.7,2-9.3,8.6
			c-2.9,1.9-6.3,4.2-10,6.6c18.1-11,22.7-13.4,24.1-13c0.4,0.1,0.8,0.4,1,0.8c1,1.8,1.1,1.8-28.1,20.5c-1.6,1-3.2,2.1-4.9,3.1
			c1.5-0.9,3-1.9,4.5-2.8c29.4-17.9,30.9-18.6,32.2-18.2c0.4,0.1,0.8,0.4,1,0.7c0.8,1.3,1,1.8-11,9.6c11.8-7,14-7.9,15-7.6
			c0.4,0.1,0.8,0.4,1,0.7c0.8,1.4-0.6,2.5-2.8,4c-1.5,1.1-3.8,2.6-6.9,4.6c-2.8,1.8-6.2,3.9-9.8,6.2c19.2-11.7,21.6-12.8,22.8-12.5
			c0.4,0.1,0.8,0.4,1,0.7c1,1.7,1.1,1.9-27.5,20.1c28.2-17.1,31.3-18.6,32.6-18.3c0.4,0.1,0.8,0.4,1,0.7c0.8,1.5,0.7,2-9.8,8.8
			c-2.1,1.4-4.4,2.9-6.9,4.5c18.5-11.2,19.8-11.6,20.9-11.4c0.4,0.1,0.8,0.4,1,0.7c0.8,1.3,1.1,1.9-10.4,9.5c5.3-3,6.7-3.4,7.4-3.2
			c0.4,0.1,0.8,0.4,1,0.7c1,1.8,1.1,1.9-29.4,21.7c2.3-1.4,4.5-2.7,6.6-4C610.7,72.5,612,72,613.2,72.3c0.4,0.1,0.8,0.4,1,0.7
			c0.7,1.3,0.7,1.9-5.9,6.4c8.1-4.8,9.7-5.3,10.6-5.1c0.4,0.1,0.8,0.4,1,0.7c1,1.7,1.1,1.9-24.3,18.2c25.6-15.7,29.6-17.8,31.2-17.4
			c0.4,0.1,0.8,0.4,1,0.8c0.9,1.6,1.1,2-21.6,16.7c20.8-12.6,23.5-14,24.8-13.6c0.4,0.1,0.8,0.4,1,0.7c0.9,1.5-0.8,2.8-3.2,4.5
			c-0.7,0.5-1.5,1.1-2.4,1.7c6.5-3.7,8.1-4.3,8.9-4c0.4,0.1,0.8,0.4,1,0.8c0.8,1.5,0.6,2.2-9.9,9.1l0,0c8.6-5.1,10.1-5.7,11.1-5.4
			c0.4,0.1,0.8,0.4,1,0.7c0.9,1.6,1.1,1.9-19.3,15.1c21.6-13.1,25.2-14.9,26.6-14.5c0.4,0.1,0.8,0.4,1,0.8c0.9,1.5,0.7,2.1-10.4,9.3
			c-0.1,0.1-0.2,0.1-0.3,0.2c10.9-6.4,12.8-7.2,13.8-7c0.4,0.1,0.8,0.4,1,0.7c0.9,1.5,0.6,2.2-10.9,9.7c-0.3,0.2-0.6,0.4-0.9,0.6
			c12-7.1,14.6-8.2,15.7-7.9c0.4,0.1,0.8,0.4,1,0.8c0.8,1.4-0.7,2.5-2.7,4c-1.5,1.1-3.7,2.6-6.7,4.6c-2.5,1.7-5.4,3.5-8.6,5.6
			c13.6-8.3,15.7-9.2,16.9-8.9c0.4,0.1,0.8,0.4,1,0.8c0.8,1.4,0.7,2-9.6,8.8c-1.7,1.1-3.5,2.3-5.5,3.6c13.4-8.1,16.6-9.7,17.9-9.4
			c0.4,0.1,0.8,0.4,1,0.8c0.9,1.5,0.4,2-8.7,8.1c-1.5,1-3.1,2-4.8,3.2c18.8-11.5,21.6-12.8,22.9-12.4c0.4,0.1,0.8,0.4,1,0.8
			c0.9,1.6,1.1,2-22.6,17.2c23.5-14.2,26.3-15.6,27.5-15.3c0.4,0.1,0.8,0.4,1,0.7c0.8,1.3,0.7,2-7.6,7.4c8.2-4.8,9.1-5,9.9-4.8
			c0.4,0.1,0.8,0.4,1,0.7c0.7,1.3,1,1.7-9.1,8.4c7.1-4.1,9-4.8,9.9-4.6c0.4,0.1,0.8,0.4,1,0.8c0.7,1.2,0.5,1.9-4.7,5.4
			c3.8-2.1,5.1-2.4,5.8-2.2c0.4,0.1,0.8,0.4,1,0.8c1,1.7,1.1,1.9-22.5,17.2c19.8-12.1,22.6-13.4,24-13.1c0.4,0.1,0.8,0.4,1,0.8
			c0.8,1.5,0.4,2.1-8.3,7.9c-3.1,2-6.7,4.4-10.8,7c21.9-13.4,24.4-14.7,25.7-14.3c0.4,0.1,0.8,0.4,1,0.7c1,1.7,1.1,1.9-25.1,18.9
			c25.9-15.7,29.1-17.3,30.4-16.9c0.4,0.1,0.8,0.4,1,0.7c0.8,1.4,0.7,1.9-8.8,8.2l0.1-0.1c6.5-3.8,8.3-4.4,9.2-4.1
			c0.4,0.1,0.8,0.4,1,0.8c0.8,1.4,0.7,2-9.4,8.8c-0.8,0.5-1.7,1.1-2.6,1.7c15-9.1,17.8-10.4,19.1-10.1c0.4,0.1,0.8,0.4,1,0.8
			c0.9,1.5,1.1,2-17.7,14.2c14.6-8.8,15.7-9.2,16.7-8.9c0.4,0.1,0.8,0.4,1,0.7c0.9,1.5,0.2,2.1-8.1,7.7c-4.8,3.2-11.2,7.4-18,11.8
			c-0.3,0.2-0.7,0.4-1,0.7c0.9-0.5,1.8-1.1,2.6-1.6c29.4-18,33-19.9,34.5-19.5c0.4,0.1,0.8,0.4,1,0.8c0.7,1.1,0.7,1.8-4.2,5.2
			c6.1-3.4,7.8-4,8.7-3.8c0.4,0.1,0.8,0.4,1,0.8c0.9,1.5-0.7,2.6-3,4.4c-1.7,1.3-4.2,3-7.6,5.2c-0.1,0.1-0.2,0.1-0.2,0.2
			c7.7-4.5,9.2-5.1,10.1-4.8c0.4,0.1,0.8,0.4,1,0.7c0.8,1.4,1.1,1.9-14.7,12.1c15-8.9,18-10.3,19.2-10c0.4,0.1,0.8,0.4,1,0.8
			c0.7,1.2,1,1.7-8.5,7.8c4.3-2.3,6.1-2.9,6.9-2.7c0.4,0.1,0.8,0.4,1,0.8c0.8,1.4-0.3,2.4-2.9,4.3c3.3-1.7,4.8-2.1,5.6-1.9
			c0.5,0.1,0.8,0.4,1.1,0.8c0.7,1.2,1.1,1.9-8.9,8.5c9.3-5.3,12.3-6.7,13.5-6.4c0.4,0.1,0.8,0.4,1,0.8c0.6,1.1,0.5,2.1-5.2,6.2
			c3.2-1.6,5-2.1,5.8-1.9c0.5,0.1,0.9,0.4,1.1,0.8c0.7,1.2,1.1,1.9-9.5,8.7c7.8-4.3,10.7-5.6,11.7-5.3c0.4,0.1,0.8,0.4,1,0.8
			c0.7,1.2,1.1,1.9-9.2,8.4c0.9-0.3,1.6-0.4,2-0.3c0.5,0.1,0.9,0.4,1.1,0.8c0.6,1,0.5,2-3.5,5c1.4-0.5,2.3-0.7,2.8-0.6
			c0.5,0.1,0.8,0.4,1.1,0.8c0.7,1.3,0.4,2.6-8.4,8.5c1.3-0.5,2.1-0.6,2.6-0.5s0.9,0.4,1.1,0.8c0.2,0.4,0.3,0.9,0.2,1.4
			c-0.2,0.7-1.2,1.7-3.1,3.2c3.9-2,6-2.7,6.8-2.5c0.5,0.1,0.8,0.4,1.1,0.8c0.2,0.4,0.3,0.9,0.2,1.4c-0.4,1.6-5.4,5.4-15.1,11.5
			c0,0,0,0,0.1,0c0.5,0.1,0.8,0.4,1.1,0.8c0.2,0.4,0.3,0.9,0.2,1.4c-0.4,1.5-4.9,4.9-13.9,10.6c0.6-0.2,1.1-0.2,1.4-0.2
			c0.4,0.1,0.8,0.4,1,0.8c0.9,1.6-0.1,3.1-8.2,8.5c-1.4,1-3,2-4.8,3.2c0.2,0,0.3,0,0.4,0c0.5,0.1,0.8,0.4,1.1,0.8
			c0.9,1.5-0.2,2.7-6.5,6.8c-2,1.3-4.6,2.9-7.7,4.9c0.5-0.1,0.8-0.1,1.1-0.1c0.5,0.1,0.8,0.4,1.1,0.8c0.2,0.4,0.3,0.9,0.2,1.4
			c-0.4,1.6-4.8,4.9-13.6,10.6c0.3,0,0.6,0,0.8,0c0.5,0.1,0.9,0.4,1.1,0.8c0.2,0.4,0.3,0.9,0.2,1.4c-0.4,1.5-4.9,4.9-15.5,11.5
			c0.2,0,0.4,0,0.5,0c0.4,0.1,0.8,0.4,1,0.8c0.9,1.6-0.4,3.1-6.7,7.4c-1.6,1.1-3.5,2.3-5.7,3.7c0.5-0.1,0.9-0.1,1.2-0.1
			c0.5,0.1,0.9,0.4,1.1,0.8c0.8,1.4,0.4,2.9-11.6,10.6c0.7-0.2,1.2-0.3,1.5-0.2c0.4,0.1,0.8,0.4,1,0.8c0.9,1.5,0,2.9-7.1,7.7
			c-1.5,1-3.1,2.1-5.1,3.3l0,0c0.5,0.1,0.9,0.4,1.1,0.8c0.9,1.6-0.4,3.2-6.6,7.4c-2.9,2-6.8,4.5-11.9,7.6c0.2,0,0.3,0,0.4,0
			c0.5,0.1,0.9,0.4,1.1,0.8c0.9,1.5,0,2.8-7.1,7.6c-2.3,1.5-5.1,3.4-8.5,5.5c0.8-0.2,1.3-0.3,1.6-0.2c0.4,0.1,0.8,0.4,1,0.8
			c0.8,1.4,0.4,2.8-11.5,10.4c1.8-0.8,2.9-1.1,3.5-0.9c0.5,0.1,0.8,0.4,1.1,0.8c0.9,1.6-0.5,2.8-5.6,6.2c-2.4,1.6-5.6,3.6-9.7,6.1
			c0.6-0.2,1-0.2,1.3-0.1c0.5,0.1,0.8,0.4,1,0.8c0.8,1.3,1.2,2-13.2,10.8c0.9-0.3,1.4-0.4,1.7-0.3c0.4,0.1,0.8,0.4,1,0.8
			c0.9,1.6-0.3,3-6,6.9c-3.1,2.1-7.5,4.9-13.3,8.5c0.8-0.2,1.3-0.3,1.6-0.2c0.4,0.1,0.8,0.4,1,0.8c0.8,1.5,0.4,2.8-14.4,11.9
			c1-0.3,1.6-0.4,2-0.3c0.5,0.1,0.8,0.4,1.1,0.8c0.9,1.5,1.3,2.2-20.1,15.2c6.1-3.3,8.5-4.3,9.4-4c0.4,0.1,0.8,0.4,1,0.8
			c0.8,1.3,1.2,2.1-12.7,10.7c2.3-1.1,3.5-1.4,4.1-1.3c0.4,0.1,0.8,0.4,1,0.8c0.9,1.6,0.4,3-15.9,13c0.2,0,0.3,0,0.4,0
			c0.5,0.1,0.8,0.4,1.1,0.8c0.4,0.7,0.2,1.6-0.5,2c-0.4,0.2-0.8,0.3-1.2,0.1c-4.7,1-38.8,21.9-66.2,38.7
			C424.2,493.2,410,501.8,401.1,506.9z M512.6,439.8L512.6,439.8L512.6,439.8z M415.2,495.1c-1.6,0.9-3.1,1.9-4.6,2.8
			C412.1,497,413.6,496.1,415.2,495.1z M450.9,468.8c-13.2,7.8-26.3,15.6-36.2,21.7C424.8,484.6,437.9,476.7,450.9,468.8z
			 M478.8,446.2c-17.8,10.6-36.9,22-49.7,30c12.6-7.3,30.3-18.2,45.8-27.6C476.2,447.8,477.5,447,478.8,446.2z M459.1,451.8
			c-10.1,6-19.6,11.6-26.9,16.2C439.7,463.5,449.2,457.8,459.1,451.8z M439.5,458.2c11.8-6.5,32.3-19.1,51.1-30.6
			C471,439,450.6,451,439.5,458.2z M446.3,448c14.3-7.8,42.1-24.8,65.8-39.2C487.2,423.3,459.7,439.3,446.3,448z M456.4,436.9
			c13.3-7.1,41.2-24.3,64.8-38.7C495.9,412.9,468.5,428.8,456.4,436.9z M466.4,425.7c12-6.7,32.1-18.9,51.3-30.7
			C497.7,406.7,477.8,418.5,466.4,425.7z M584.3,352.3c-5.1,3-10.8,6.5-16.8,10.1C573.6,358.7,579.3,355.3,584.3,352.3z
			 M513.4,391.9c-9.1,5.3-17.6,10.4-24.6,14.7C495.9,402.5,504.4,397.4,513.4,391.9z M599.4,336.6c-14.8,8.6-36.7,22-55.7,33.7
			c-4.8,2.9-9.2,5.7-13.4,8.2c1.4-0.8,2.8-1.6,4.2-2.5c27.6-16.2,60.5-35.5,74.3-44.8C606.3,332.6,603.1,334.5,599.4,336.6z
			 M516.8,383.3c-8.5,5-16.1,9.5-22.2,13.3C500.9,392.9,508.6,388.3,516.8,383.3z M615,321.4c-15.8,9.1-38.9,23.3-58.9,35.6
			c26.6-15.4,57.6-33.3,70.4-41.9C623.4,316.7,619.5,318.8,615,321.4z M628.9,308.7c-7.1,4.2-16.1,9.6-25.6,15.3
			C613.1,318.3,622,313,628.9,308.7z M504.6,379.7c13.5-7.3,39.7-23.1,63.1-37.4C543.2,356.5,517.3,371.5,504.6,379.7z M637.2,297.4
			c-12.7,7.3-30.9,18.4-48.1,29c22.2-12.9,44.5-26,55.8-33.4C642.7,294.3,640.1,295.7,637.2,297.4z M511.8,369.5
			c11.6-6.3,33.3-19.5,54-32.3C544.2,349.7,522.7,362.3,511.8,369.5z M647,286c-11.8,6.8-28.3,16.7-45,26.8
			c19.2-11.1,38.2-22.2,49.7-29.5C650.2,284.2,648.6,285.1,647,286z M523,356.7c11.2-6.3,29-17,47.2-28.1
			C551.6,339.4,533.8,349.8,523,356.7z M614.6,299.7c22.4-12.9,43.7-25.3,54.6-32.4C657.6,273.5,635.9,286.6,614.6,299.7z
			 M530,347.2c10.8-6,29.4-17.2,48.6-29C558.8,329.7,540.3,340.5,530,347.2z M622.9,289.2c22.8-13.1,45.4-26.4,57-34
			C667.6,262.1,645.1,275.7,622.9,289.2z M539.7,335.5c14.2-7.7,42.4-24.9,67.5-40.2C580.4,310.8,552.8,326.9,539.7,335.5z
			 M694.5,235.5c-16.6,9.6-41.4,24.6-62.9,37.7c-2,1.2-3.9,2.4-5.8,3.5c30-17.3,62.8-36.4,77.7-46.3
			C700.9,231.8,697.9,233.5,694.5,235.5z M562.5,310.8c12.4-7,33.8-19.8,55.2-32.8C595.9,290.6,574.4,303.2,562.5,310.8z
			 M660.2,250.2c22-12.7,43.6-25.3,54.8-32.6C703.2,224,681.9,237,660.2,250.2z M577.8,296.3c8-4.6,18.4-10.8,29.7-17.5
			C596.1,285.4,585.7,291.5,577.8,296.3z M721.5,208c-15.3,8.8-38.8,23.2-60.8,36.6c27.8-16,55.7-32.4,68.7-41.1
			C727.1,204.8,724.4,206.3,721.5,208z M574.2,292.6c14-7.4,43.7-25.4,71.3-42.2C618.2,266.1,587.5,283.8,574.2,292.6z M670.4,232.6
			c22.5-13,43.9-25.5,54.6-32.5C713.5,206.2,691.7,219.5,670.4,232.6z M622.4,258.5c-9.8,5.8-18.8,11.1-25.9,15.5
			C603.7,269.9,612.7,264.5,622.4,258.5z M722.3,195.6c-13.5,7.8-33.7,20.2-52.9,31.9c22.9-13.4,46.1-27.1,58.3-35
			C726.1,193.4,724.3,194.5,722.3,195.6z M626.6,250.2c-6.9,4.1-13.4,7.9-18.8,11.2C613.3,258.2,619.8,254.3,626.6,250.2z
			 M721.2,190.6c-12.9,7.4-31.4,18.8-48.5,29.3c22.3-12.9,45-26.2,56.2-33.7C726.7,187.5,724.1,189,721.2,190.6z M643.4,234.5
			c-9.5,5.6-18.3,10.9-25.3,15.2C625.2,245.5,634,240.2,643.4,234.5z M669.6,213.3c-15.7,9.2-31.9,18.9-43.6,26.1
			C637.8,232.6,654,222.8,669.6,213.3z M714.7,177.7c-5.5,3.3-11.6,7-17.7,10.7C703.2,184.7,709.3,181.1,714.7,177.7z M407.4-68.8
			L407.4-68.8L407.4-68.8z"/>
	</g>
</g>
</svg>
